<svg width="17" height="16" viewBox="0 0 17 16" fill="none" xmlns="http://www.w3.org/2000/svg">
<path d="M6.51521 10.6353L13.5777 3.57275C13.7444 3.40609 13.9388 3.32275 14.161 3.32275C14.3833 3.32275 14.5777 3.40609 14.7444 3.57275C14.911 3.73942 14.9944 3.93748 14.9944 4.16692C14.9944 4.39637 14.911 4.59414 14.7444 4.76025L7.09854 12.4269C6.93187 12.5936 6.73743 12.6769 6.51521 12.6769C6.29298 12.6769 6.09854 12.5936 5.93187 12.4269L2.34854 8.84359C2.18187 8.67692 2.10187 8.47914 2.10854 8.25025C2.11521 8.02136 2.20215 7.82331 2.36937 7.65609C2.53659 7.48886 2.73465 7.40553 2.96354 7.40609C3.19243 7.40664 3.39021 7.48998 3.55687 7.65609L6.51521 10.6353Z" fill="white"/>
</svg>
