<svg width="24" height="24" viewBox="0 0 24 24" fill="none" xmlns="http://www.w3.org/2000/svg">
<path d="M9.96394 14.6354L17.0264 7.57288C17.1931 7.40621 17.3875 7.32288 17.6098 7.32288C17.832 7.32288 18.0264 7.40621 18.1931 7.57288C18.3598 7.73954 18.4431 7.9376 18.4431 8.16704C18.4431 8.39649 18.3598 8.59427 18.1931 8.76038L10.5473 16.427C10.3806 16.5937 10.1862 16.677 9.96394 16.677C9.74171 16.677 9.54727 16.5937 9.3806 16.427L5.79727 12.8437C5.6306 12.677 5.5506 12.4793 5.55727 12.2504C5.56394 12.0215 5.65088 11.8234 5.8181 11.6562C5.98532 11.489 6.18338 11.4057 6.41227 11.4062C6.64116 11.4068 6.83894 11.4901 7.0056 11.6562L9.96394 14.6354Z" fill="white"/>
</svg>
