<svg width="20" height="20" viewBox="0 0 20 20" fill="none" xmlns="http://www.w3.org/2000/svg">
<path d="M9.99999 18.3334C8.84721 18.3334 7.76388 18.1145 6.74999 17.6767C5.7361 17.2389 4.85416 16.6453 4.10416 15.8959C3.35416 15.1464 2.76055 14.2645 2.32332 13.25C1.8861 12.2356 1.66721 11.1523 1.66666 10C1.6661 8.84782 1.88499 7.76449 2.32332 6.75004C2.76166 5.7356 3.35527 4.85365 4.10416 4.10421C4.85305 3.35477 5.73499 2.76115 6.74999 2.32338C7.76499 1.8856 8.84832 1.66671 9.99999 1.66671C10.4583 1.66671 10.9097 1.70143 11.3542 1.77088C11.7986 1.84032 12.2292 1.94449 12.6458 2.08338C12.9653 2.19449 13.1667 2.35782 13.25 2.57338C13.3333 2.78893 13.3403 3.0006 13.2708 3.20838C13.2014 3.41615 13.073 3.57949 12.8858 3.69838C12.6986 3.81727 12.4867 3.82754 12.25 3.72921C11.8889 3.60421 11.5244 3.50699 11.1567 3.43754C10.7889 3.3681 10.4033 3.33338 9.99999 3.33338C8.15277 3.33338 6.57971 3.98282 5.28082 5.28171C3.98194 6.5806 3.33277 8.15338 3.33332 10C3.33388 11.8467 3.98332 13.4198 5.28166 14.7192C6.57999 16.0187 8.15277 16.6678 9.99999 16.6667C11.8472 16.6656 13.4203 16.0164 14.7192 14.7192C16.018 13.422 16.6672 11.8489 16.6667 10C16.6667 9.75004 16.6528 9.50004 16.625 9.25004C16.5972 9.00004 16.5555 8.75699 16.5 8.52088C16.4305 8.25699 16.4653 8.04171 16.6042 7.87504C16.743 7.70838 16.9167 7.60421 17.125 7.56254C17.3333 7.52088 17.5383 7.55227 17.74 7.65671C17.9417 7.76116 18.0769 7.95893 18.1458 8.25004C18.2153 8.52782 18.2639 8.81254 18.2917 9.10421C18.3194 9.39588 18.3333 9.69449 18.3333 10C18.3333 11.1528 18.1147 12.2362 17.6775 13.25C17.2403 14.2639 16.6464 15.1459 15.8958 15.8959C15.1453 16.6459 14.2633 17.2398 13.25 17.6775C12.2367 18.1153 11.1533 18.3339 9.99999 18.3334ZM16.6667 4.16671H15.8333C15.5972 4.16671 15.3994 4.08671 15.24 3.92671C15.0805 3.76671 15.0005 3.56893 15 3.33338C14.9994 3.09782 15.0794 2.90004 15.24 2.74004C15.4005 2.58004 15.5983 2.50004 15.8333 2.50004H16.6667V1.66671C16.6667 1.4306 16.7467 1.23282 16.9067 1.07338C17.0667 0.913932 17.2644 0.833932 17.5 0.833377C17.7355 0.832821 17.9336 0.912821 18.0942 1.07338C18.2547 1.23393 18.3344 1.43171 18.3333 1.66671V2.50004H19.1667C19.4028 2.50004 19.6008 2.58004 19.7608 2.74004C19.9208 2.90004 20.0005 3.09782 20 3.33338C19.9994 3.56893 19.9194 3.76699 19.76 3.92754C19.6005 4.0881 19.4028 4.16782 19.1667 4.16671H18.3333V5.00004C18.3333 5.23615 18.2533 5.43421 18.0933 5.59421C17.9333 5.75421 17.7355 5.83393 17.5 5.83338C17.2644 5.83282 17.0667 5.75282 16.9067 5.59338C16.7467 5.43393 16.6667 5.23615 16.6667 5.00004V4.16671ZM12.9167 9.16671C13.2639 9.16671 13.5592 9.04532 13.8025 8.80254C14.0458 8.55977 14.1672 8.26449 14.1667 7.91671C14.1661 7.56893 14.0447 7.27393 13.8025 7.03171C13.5603 6.78949 13.265 6.66782 12.9167 6.66671C12.5683 6.6656 12.2733 6.78727 12.0317 7.03171C11.79 7.27615 11.6683 7.57116 11.6667 7.91671C11.665 8.26227 11.7867 8.55754 12.0317 8.80254C12.2767 9.04754 12.5717 9.16893 12.9167 9.16671ZM7.08332 9.16671C7.43055 9.16671 7.72582 9.04532 7.96916 8.80254C8.21249 8.55977 8.33388 8.26449 8.33332 7.91671C8.33277 7.56893 8.21138 7.27393 7.96916 7.03171C7.72694 6.78949 7.43166 6.66782 7.08332 6.66671C6.73499 6.6656 6.43999 6.78727 6.19832 7.03171C5.95666 7.27615 5.83499 7.57116 5.83332 7.91671C5.83166 8.26227 5.95332 8.55754 6.19832 8.80254C6.44332 9.04754 6.73832 9.16893 7.08332 9.16671ZM9.99999 14.5834C10.8055 14.5834 11.5486 14.3889 12.2292 14C12.9097 13.6112 13.4583 13.0834 13.875 12.4167C13.9583 12.25 13.9514 12.0834 13.8542 11.9167C13.7569 11.75 13.6111 11.6667 13.4167 11.6667H6.58332C6.38888 11.6667 6.24305 11.75 6.14582 11.9167C6.0486 12.0834 6.04166 12.25 6.12499 12.4167C6.54166 13.0834 7.09388 13.6112 7.78166 14C8.46944 14.3889 9.20888 14.5834 9.99999 14.5834Z" fill="#9A9A9A"/>
</svg>
