<svg width="24" height="24" viewBox="0 0 24 24" fill="none" xmlns="http://www.w3.org/2000/svg">
<path d="M10.775 10.4L4.52499 7.7C4.12499 7.51667 3.87933 7.22067 3.78799 6.812C3.69666 6.40333 3.80899 6.041 4.12499 5.725L4.52499 5.325C4.65833 5.19167 4.82099 5.09167 5.01299 5.025C5.20499 4.95833 5.40066 4.94167 5.59999 4.975L14.6 6.575L17.7 3.45C18.0833 3.06667 18.5543 2.875 19.113 2.875C19.6717 2.875 20.1423 3.06667 20.525 3.45C20.9077 3.83333 21.0993 4.30433 21.1 4.863C21.1007 5.42167 20.909 5.89233 20.525 6.275L17.425 9.4L19 18.375C19.0333 18.575 19.0207 18.775 18.962 18.975C18.9033 19.175 18.8077 19.3417 18.675 19.475L18.275 19.85C17.9583 20.1667 17.5917 20.2833 17.175 20.2C16.7583 20.1167 16.4583 19.875 16.275 19.475L13.6 13.225L11.05 15.75L11.6 18.85C11.6333 19.0167 11.625 19.1793 11.575 19.338C11.525 19.4967 11.4417 19.634 11.325 19.75L10.9 20.175C10.6667 20.4083 10.3793 20.5 10.038 20.45C9.69666 20.4 9.44233 20.225 9.27499 19.925L7.44999 16.55L4.07499 14.725C3.77499 14.5583 3.59999 14.3043 3.54999 13.963C3.49999 13.6217 3.59166 13.334 3.82499 13.1L4.24999 12.675C4.36666 12.5583 4.50433 12.475 4.66299 12.425C4.82166 12.375 4.98399 12.3667 5.14999 12.4L8.22499 12.925L10.775 10.4Z" fill="#1A1A1A"/>
</svg>
