<?xml version="1.0" encoding="UTF-8"?>
<svg id="_レイヤー_1" data-name="レイヤー_1" xmlns="http://www.w3.org/2000/svg" xmlns:xlink="http://www.w3.org/1999/xlink" version="1.1" viewBox="0 0 131 34">
  <!-- Generator: Adobe Illustrator 29.1.0, SVG Export Plug-In . SVG Version: 2.1.0 Build 142)  -->
  <defs>
    <style>
      .st0 {
        fill: none;
      }

      .st1 {
        fill: #d9042b;
      }

      .st2 {
        isolation: isolate;
      }
    </style>
  </defs>
  <rect class="st0" x="8" y="0" width="35" height="34"/>
  <path class="st1" d="M61,14c0-1.8.4-3,1.3-3.8.9-.8,2.4-1.2,4.4-1.2h.7v8.4c0,3.6-1,6-3.1,7-.7.4-1.6.5-2.6.5h-.7v-11ZM58.2,25c-2,0-3.4-.7-4.4-2.1-.9-1.3-1.3-3.1-1.3-5.5v-8.4h.7c2,0,3.5.4,4.4,1.2.9.8,1.3,2,1.3,3.8v11h-.7ZM79,9.1h1.1c2.9,0,4.6,1,5.1,2.9.2.6.3,1.4.3,2.2v10.8h-6.5v-15.9ZM70.4,14.2c0-1.7.4-3,1.2-3.8.9-.9,2.3-1.3,4.2-1.3h1.1v15.9h-6.5v-10.8ZM96.9,9.1h1.1c2.9,0,4.6,1,5.1,2.9.2.6.3,1.4.3,2.2v10.8h-6.5v-15.9ZM88.4,9.1h6.3v15.9h-6.3v-15.9ZM107.4,14.7c-.6-.9-1-2.3-1-4v-1.7h4.6l8.7,9.6c.5.5.8,1,1,1.4s.3.7.4,1c.2.6.3,1.4.3,2.3v1.7h-4.5l-9.5-10.3h0ZM116.3,14.1c0-2.1.3-3.5,1-4.2.4-.3.8-.6,1.4-.7.6-.1,1.3-.2,2.1-.2h.6v1.9c0,1.7-.4,2.8-1.3,3.3-.6.4-1.7.6-3.2.6h-.6v-.8ZM106.4,23.2c0-1.7.4-2.8,1.3-3.4.6-.4,1.7-.6,3.2-.6h.6v.8c0,2.2-.3,3.6-1,4.2-.5.4-1.1.7-2,.8-.4,0-.9,0-1.5,0h-.6v-1.8Z"/>
  <image class="st2" width="1291" height="1272" transform="translate(11.7 1.6) scale(0)" xlink:href="logo-1.png"/>
</svg>